<?xml version="1.0" encoding="utf-8"?>
<!-- Generator: Adobe Illustrator 22.0.0, SVG Export Plug-In . SVG Version: 6.00 Build 0)  -->
<svg version="1.1" id="图层_1" xmlns="http://www.w3.org/2000/svg" xmlns:xlink="http://www.w3.org/1999/xlink" x="0px" y="0px"
	 viewBox="0 0 696.2 365.1" style="enable-background:new 0 0 696.2 365.1;" xml:space="preserve">
<style type="text/css">
	.st0{fill:#F3D1B7;}
	.st1{fill:#FFF0E5;}
	.st2{fill:#F4D2B8;}
	.st3{fill:#FFFFFF;}
	.st4{fill:none;stroke:#EE7000;stroke-width:2;stroke-miterlimit:10;}
	.st5{fill:none;stroke:#FF8000;stroke-width:2;stroke-miterlimit:10;}
	.st6{fill:#FF8000;}
	.st7{fill:none;stroke:#FF8000;stroke-miterlimit:10;}
	.st8{fill:#544560;}
	.st9{fill:none;stroke:#7A688D;stroke-miterlimit:10;}
	.st10{fill:none;stroke:#544267;stroke-width:2;stroke-miterlimit:10;}
	.st11{fill:#544267;}
	.st12{fill:#34223E;}
	.st13{fill:#FFEDDF;}
</style>
<ellipse class="st0" cx="460.6" cy="25.7" rx="11.7" ry="20.9"/>
<polygon class="st1" points="183.2,363.5 26.9,363.5 183.2,181.9 "/>
<rect x="150.5" y="297.7" class="st2" width="262.3" height="6.8"/>
<rect x="150.5" y="357.8" class="st2" width="262.3" height="5.7"/>
<rect x="155.3" y="304.4" class="st3" width="212.3" height="53.4"/>
<path class="st4" d="M546.2,356.1c7.3-8.6,11.9-22.7,6.3-38.9"/>
<line class="st5" x1="4.1" y1="364.1" x2="86.1" y2="364.1"/>
<line class="st5" x1="179.8" y1="183.2" x2="206.2" y2="183.2"/>
<line class="st5" x1="229.3" y1="183.2" x2="376.8" y2="183.2"/>
<rect x="183" y="187.7" class="st3" width="191.4" height="36.2"/>
<g>
	<path class="st6" d="M374.4,189.8v32.7c5.9-3,9.9-9.2,9.9-16.3C384.3,199,380.3,192.8,374.4,189.8z"/>
	<line class="st7" x1="183" y1="212.2" x2="374.4" y2="212.2"/>
	<line class="st7" x1="241.3" y1="200.3" x2="374.4" y2="200.3"/>
	<line class="st7" x1="219.8" y1="200.3" x2="227.8" y2="200.3"/>
	<line class="st7" x1="183" y1="200.3" x2="211.4" y2="200.3"/>
</g>
<g>
	<circle class="st8" cx="20" cy="259.8" r="20"/>
	<circle class="st8" cx="69.4" cy="260.9" r="20"/>
	<circle class="st8" cx="59.4" cy="316.5" r="20"/>
	<line class="st9" x1="58.6" y1="244.1" x2="129" y2="363.5"/>
	<line class="st9" x1="101.9" y1="317.6" x2="3.6" y2="248.3"/>
	<line class="st9" x1="41.1" y1="307.8" x2="117.4" y2="343.8"/>
	<g>
		<line class="st9" x1="10.7" y1="253.2" x2="0.4" y2="257.7"/>
		<line class="st9" x1="22.6" y1="261.7" x2="3.2" y2="270.2"/>
		<line class="st9" x1="28.9" y1="266.1" x2="7.7" y2="275.3"/>
		<line class="st9" x1="16.4" y1="240.6" x2="15.6" y2="256.7"/>
		<line class="st9" x1="19.4" y1="239.7" x2="18.3" y2="258.6"/>
		<line class="st9" x1="27.5" y1="241.2" x2="26.2" y2="264.2"/>
	</g>
	<g>
		<line class="st9" x1="63.7" y1="251.4" x2="52.4" y2="250.8"/>
		<line class="st9" x1="70.5" y1="264.3" x2="49.4" y2="263.2"/>
		<line class="st9" x1="74.2" y1="271" x2="51.1" y2="269.8"/>
		<line class="st9" x1="74.5" y1="242.7" x2="66.5" y2="256.7"/>
		<line class="st9" x1="77.5" y1="243.2" x2="68.1" y2="259.6"/>
		<line class="st9" x1="84.1" y1="248.2" x2="72.7" y2="268.1"/>
	</g>
	<g>
		<line class="st9" x1="49.4" y1="311.6" x2="48.7" y2="300.1"/>
		<line class="st9" x1="62.1" y1="318.2" x2="60.7" y2="296.5"/>
		<line class="st9" x1="68.8" y1="321.2" x2="67.2" y2="298.5"/>
		<line class="st9" x1="40.3" y1="322.7" x2="53.9" y2="314.2"/>
		<line class="st9" x1="41.6" y1="325.4" x2="57.5" y2="315.2"/>
		<line class="st9" x1="46.6" y1="332" x2="65.9" y2="319.7"/>
	</g>
</g>
<g>
	<circle class="st8" cx="676" cy="259.8" r="20"/>
	<circle class="st8" cx="626.6" cy="260.9" r="20"/>
	<circle class="st8" cx="636.5" cy="316.5" r="20"/>
	<line class="st9" x1="637.3" y1="244.1" x2="567" y2="363.5"/>
	<line class="st9" x1="594" y1="317.6" x2="692.3" y2="248.3"/>
	<line class="st9" x1="654.8" y1="307.8" x2="578.6" y2="343.8"/>
	<g>
		<line class="st9" x1="685.3" y1="253.2" x2="695.5" y2="257.7"/>
		<line class="st9" x1="673.4" y1="261.7" x2="692.8" y2="270.2"/>
		<line class="st9" x1="667" y1="266.1" x2="688.2" y2="275.3"/>
		<line class="st9" x1="679.5" y1="240.6" x2="680.3" y2="256.7"/>
		<line class="st9" x1="676.5" y1="239.7" x2="677.6" y2="258.6"/>
		<line class="st9" x1="668.4" y1="241.2" x2="669.7" y2="264.2"/>
	</g>
	<g>
		<line class="st9" x1="632.3" y1="251.4" x2="643.5" y2="250.8"/>
		<line class="st9" x1="625.4" y1="264.3" x2="646.6" y2="263.2"/>
		<line class="st9" x1="621.7" y1="271" x2="644.8" y2="269.8"/>
		<line class="st9" x1="621.5" y1="242.7" x2="629.4" y2="256.7"/>
		<line class="st9" x1="618.4" y1="243.2" x2="627.9" y2="259.6"/>
		<line class="st9" x1="611.8" y1="248.2" x2="623.3" y2="268.1"/>
	</g>
	<g>
		<line class="st9" x1="646.5" y1="311.6" x2="647.3" y2="300.1"/>
		<line class="st9" x1="633.9" y1="318.2" x2="635.2" y2="296.5"/>
		<line class="st9" x1="627.1" y1="321.2" x2="628.8" y2="298.5"/>
		<line class="st9" x1="655.6" y1="322.7" x2="642" y2="314.2"/>
		<line class="st9" x1="654.4" y1="325.4" x2="638.5" y2="315.2"/>
		<line class="st9" x1="649.3" y1="332" x2="630" y2="319.7"/>
	</g>
</g>
<circle class="st4" cx="143.7" cy="21.7" r="9.8"/>
<circle class="st4" cx="264.1" cy="118.3" r="5.2"/>
<circle class="st10" cx="593" cy="108.8" r="4.1"/>
<polygon class="st11" points="500.9,104.2 509.5,110 510.1,111.6 507.4,115.8 498.4,107.5 "/>
<g>
	<path class="st3" d="M467,67.6l1.1-18.9c0,0,3.9-3.5,9.8-2.4s15.3,3.3,15.3,3.3l1.8-0.3c0,0,9.6-4.2,21.6-2.3s14.8,5.4,14.8,5.4
		l-15.6,41.5L467,94.8V67.6z"/>
	<path class="st2" d="M472.3,96.8l37.4-1.1l-8.1,9l7.6,5.1l5.3-10.1c0,0,8.8-3.2,10.1-6c0.8-1.7,0.9-8.5-1.4-11.4
		c7.4-18.1,12.1-29.1,12.1-29.1h-3.9c0,0-14.9,36.4-15.6,36.2c-0.6-0.2-0.7-4.9-0.7-4.9s0.5-3.6-1.6-3.7c-2.1-0.1-2,3.4-2,3.4
		l-0.6,7.7l-35.6,0.4l19.3-42.6l-1.1-0.1L472.9,95L472.3,96.8z"/>
	<path class="st12" d="M420.5,151.5c0,0,4,10.6,18.6,8.6s45.1-10.4,45.1-10.4l-15.3-15.6c0,0-1.3-2.1-0.8-8.5s2.6-11.9,2.6-11.9
		s18.1,21.7,22.2,21.1s14.2-19.5,14.2-19.5l-8.5-7.6l-5.6,6.2c0,0-11.6-23.9-14.3-31.1s-10.2-15.2-10.2-15.2l-46.7,65.2L420.5,151.5
		z"/>
	<path class="st6" d="M431,19.5c0.4-9.7,11-22.2,27.4-18.4c12.4,2.9,19.9,17.6,14.3,21c-5.6,3.3-14.8-0.8-11.3,10.8
		c3.7,12.2,16.6,27.9-1.3,65.5c-16.2,34.2-45.1,47.9-69.8,25.8c-29.6-37.7-6.1-61,10.8-71C426.5,38.1,430.4,35.5,431,19.5z"/>
	<polygon class="st2" points="503.9,228.1 494.8,282.3 505.4,285 520.8,239.1 530.9,290.4 541.1,288.3 539,215.7 	"/>
	<path class="st11" d="M420.5,151.9c0,0-7.8,32.1,8,39.5c13.9,6.5,84,31.9,92.5,32.1s25.8,0,25.8,0s-3.8-46.3-10.6-52.4
		c-9.2-8.2-52-21.4-52-21.4L420.5,151.9z"/>
	<path class="st12" d="M492.4,282.3h3l10,2.7h2.5c0,0-2,10.6,2.1,12.7c-3.8,0-13,0-13,0l-7.2,0C489.9,297.6,492.4,282.3,492.4,282.3
		z"/>
	<path class="st12" d="M528.4,288.2v9.4l14.7,6h25.1c0,0,0.5-5.2-6-5.2c-7.9-0.1-13.1-0.2-15.4-5c-2.4-5-2.6-6.8-2.6-6.8
		L528.4,288.2z"/>
</g>
<path class="st2" d="M510.5,183.9c11.2,0,20.5,8.4,22,19.3c0.2,1,0.3,2.1,0.3,3.2c0,1.2-0.2,2.5-0.4,3.7
	c-1.8,10.6-10.9,18.7-21.9,18.7c-1.3,0-7.2,0-9,0H179.8v-4.4h186.3c10,0,18.1-8.2,18.1-18.3s-8.1-18.3-18.1-18.3l0,0H179.8V184
	h321.8L510.5,183.9L510.5,183.9L510.5,183.9z"/>
<path class="st5" d="M510.4,183.2c12.6,0,22.9,10.2,22.9,22.9c0,12.6-10.2,22.9-22.9,22.9"/>
<line class="st5" x1="493.7" y1="229" x2="506.2" y2="229"/>
<line class="st5" x1="385.4" y1="183.2" x2="510.5" y2="183.2"/>
<line class="st5" x1="123.7" y1="364.1" x2="136.4" y2="364.1"/>
<path class="st2" d="M554.1,331.5c0-17.8-11.4-32.5-26-33.8l0,0H367.5v67.4h160.6v-0.4C542.7,363.4,554.1,349.2,554.1,331.5z"/>
<line class="st5" x1="150.5" y1="364.1" x2="694.8" y2="364.1"/>
<path class="st4" d="M544,304.1c-4.5-4.2-9.9-6.9-16-7.4"/>
<ellipse class="st6" cx="143.6" cy="263.2" rx="22.8" ry="34.5"/>
<rect x="142.6" y="228.8" class="st6" width="173.4" height="68.9"/>
<ellipse class="st13" cx="306.3" cy="263" rx="19.1" ry="27.3"/>
<g>
	<path class="st3" d="M287.1,263c0,15.1,8.4,27.4,18.8,27.4s18.8-12.3,18.8-27.4c0-8.1-2.4-15.4-6.2-20.4h-25.1
		C289.5,247.6,287.1,254.9,287.1,263z"/>
</g>
<path class="st13" d="M488.3,235.5H305.9c4.8,0,9.2,2.7,12.5,7.1h169.9V235.5z"/>
<path class="st13" d="M305.9,235.5c-4.8,0-9.2,2.7-12.5,7.1h25.1C315.1,238.2,310.7,235.5,305.9,235.5z"/>
<rect x="305.9" y="242.6" class="st3" width="182.4" height="47.8"/>
<polygon class="st6" points="343.8,275.6 330.7,259.3 317.6,275.6 317.6,199.9 343.8,199.9 "/>
<g>
	<path class="st11" d="M367.4,304.8v52.7c10-4.5,17-14.6,17-26.4S377.4,309.3,367.4,304.8z"/>
	<line class="st10" x1="155.1" y1="316.1" x2="367.4" y2="316.1"/>
	<line class="st10" x1="235" y1="331.3" x2="367.5" y2="331.3"/>
	<line class="st10" x1="202.2" y1="331.3" x2="211.3" y2="331.3"/>
	<line class="st10" x1="155.3" y1="331.3" x2="194.9" y2="331.3"/>
	<line class="st10" x1="155.3" y1="346.2" x2="367.5" y2="346.2"/>
</g>
<rect x="288.8" y="290.4" class="st6" width="203" height="7.3"/>
<rect x="288.8" y="228.8" class="st6" width="203" height="6.7"/>
<rect x="288.8" y="232.1" class="st6" width="28.9" height="3.5"/>
<rect x="510.1" y="182.2" class="st6" width="0.4" height="2"/>
</svg>
