<?xml version="1.0" encoding="utf-8"?>
<!-- Generator: Adobe Illustrator 22.0.0, SVG Export Plug-In . SVG Version: 6.00 Build 0)  -->
<svg version="1.1" id="图层_1" xmlns="http://www.w3.org/2000/svg" xmlns:xlink="http://www.w3.org/1999/xlink" x="0px" y="0px"
	 viewBox="0 0 200 200" style="enable-background:new 0 0 200 200;" xml:space="preserve">
<style type="text/css">
	.st0{fill:#4E8CEE;}
	.st1{fill:#A6C5F6;}
</style>
<g>
	<path class="st0" d="M178.5,133c-4.7-0.1-9-2.6-11.3-6.7c-2.3-4.1-2.3-9.1,0-13.2c-5.1-5.1-11.5-8.8-18.5-10.7
		c-3.9,6.4-12.2,8.4-18.5,4.5c-1.8-1.1-3.4-2.7-4.5-4.5c-7,2-13.3,5.6-18.5,10.7c3.6,6.5,1.2,14.7-5.3,18.2
		c-2.1,1.1-4.4,1.7-6.8,1.7c-1.8,7.1-1.8,14.5,0,21.5c7.4,0.2,13.3,6.3,13.1,13.7c0,2.2-0.6,4.3-1.7,6.2c5.2,5.1,11.5,8.8,18.5,10.8
		c3.8-6.4,12.1-8.4,18.4-4.6c1.9,1.1,3.5,2.7,4.6,4.6c7-2,13.3-5.7,18.5-10.8c-2.3-4.1-2.3-9.1,0-13.2c2.3-4.1,6.6-6.7,11.3-6.7
		c1.8-7.1,1.8-14.5,0-21.5H178.5z M136.9,161c-9.5,0-17.3-7.7-17.3-17.2s7.7-17.3,17.2-17.3s17.3,7.7,17.3,17.2c0,0,0,0,0,0.1
		C154.2,153.2,146.5,160.9,136.9,161C137,161,137,161,136.9,161z M177.2,28.8H100c-4,0.1-7.2,3.4-7.1,7.4c0,0.1,0,0.2,0,0.3
		c0,1.4,0,2.2,0.7,2.8l2.2,6.2c1,2.5,3.4,4.2,6.2,4.3h74.6c4.3,0,7.8-3.5,7.8-7.8v-5.4c0.5-3.8-2.2-7.2-6-7.7
		C178,28.8,177.6,28.8,177.2,28.8z"/>
	<path class="st1" d="M135.4,85.5c20.5,0.2,39.4,11.2,49.6,29V65.2c0.1-4.3-3.3-7.9-7.6-8.1c-0.1,0-0.1,0-0.2,0H100
		c-3.2,0.2-6.2-1.9-7.1-5l-2.2-4.3L85,34.4c0,0,0-0.7-0.7-0.7c-1-2.5-3.4-4.2-6.2-4.3H22.8c-4.3,0-7.8,3.5-7.8,7.8v119
		c-0.1,4.4,3.3,8,7.7,8.1c0,0,0,0,0.1,0h60c-2.9-6.7-4.3-14-4.3-21.3c-0.3-31.5,24.9-57.3,56.4-57.6
		C135.1,85.5,135.2,85.5,135.4,85.5z"/>
</g>
</svg>
