<?xml version="1.0" standalone="no"?><!DOCTYPE svg PUBLIC "-//W3C//DTD SVG 1.1//EN" "http://www.w3.org/Graphics/SVG/1.1/DTD/svg11.dtd"><svg t="1545919392523" class="icon" style="" viewBox="0 0 1024 1024" version="1.1" xmlns="http://www.w3.org/2000/svg" p-id="11570" xmlns:xlink="http://www.w3.org/1999/xlink" width="200" height="200"><defs><style type="text/css"></style></defs><path d="M750.8 871.6H171.2c-1.7 0-3-1.3-3-3s1.3-3 3-3h579.5c1.7 0 3 1.3 3 3 0.1 1.6-1.3 3-2.9 3z" fill="#FFFFFF" p-id="11571"></path><path d="M750.8 884.1H171.2c-8.5 0-15.5-7-15.5-15.5s7-15.5 15.5-15.5h579.5c8.5 0 15.5 7 15.5 15.5s-6.9 15.5-15.4 15.5zM861.9 871.6h-57c-1.7 0-3-1.3-3-3s1.3-3 3-3h57c1.7 0 3 1.3 3 3 0 1.6-1.3 3-3 3z" fill="#40220F" p-id="11572"></path><path d="M861.9 884.1h-57c-8.5 0-15.5-7-15.5-15.5s7-15.5 15.5-15.5h57c8.5 0 15.5 7 15.5 15.5s-7 15.5-15.5 15.5z" fill="#40220F" p-id="11573"></path><path d="M535 538.2m-325 0a325 325 0 1 0 650 0 325 325 0 1 0-650 0Z" fill="#FFF143" p-id="11574"></path><path d="M535 875.7c-90.1 0-174.9-35.1-238.6-98.9-63.7-63.7-98.9-148.5-98.9-238.6s35.1-174.9 98.9-238.6c63.7-63.7 148.5-98.9 238.6-98.9s174.9 35.1 238.6 98.9c63.7 63.7 98.9 148.5 98.9 238.6s-35.1 174.9-98.9 238.6-148.5 98.9-238.6 98.9z m0-650c-172.3 0-312.5 140.2-312.5 312.5S362.7 850.7 535 850.7s312.5-140.2 312.5-312.5S707.3 225.7 535 225.7z" fill="#40220F" p-id="11575"></path><path d="M535.2 229.2V848c170.9 0 309.4-138.5 309.4-309.4S706.1 229.2 535.2 229.2z" fill="#FAFFAD" p-id="11576"></path><path d="M718.4 546.4H351.6c-4.5 0-8.2-3.7-8.2-8.2 0-4.5 3.7-8.2 8.2-8.2h366.7c4.5 0 8.2 3.7 8.2 8.2 0.1 4.6-3.6 8.2-8.1 8.2z" fill="#40220F" p-id="11577"></path><path d="M718.4 556.4H351.6c-10 0-18.2-8.2-18.2-18.2s8.2-18.2 18.2-18.2h366.7c10 0 18.2 8.2 18.2 18.2s-8.1 18.2-18.1 18.2z" fill="#40220F" p-id="11578"></path><path d="M543.2 354.9v366.7c0 4.5-3.7 8.2-8.2 8.2-4.5 0-8.2-3.7-8.2-8.2V354.9c0-4.5 3.7-8.2 8.2-8.2 4.5 0 8.2 3.6 8.2 8.2z" fill="#40220F" p-id="11579"></path><path d="M535 739.8c-10 0-18.2-8.2-18.2-18.2V354.9c0-10 8.2-18.2 18.2-18.2s18.2 8.2 18.2 18.2v366.7c0 10-8.2 18.2-18.2 18.2z" fill="#40220F" p-id="11580"></path></svg>