<?xml version="1.0" encoding="utf-8"?>
<!-- Generator: Adobe Illustrator 22.0.0, SVG Export Plug-In . SVG Version: 6.00 Build 0)  -->
<svg version="1.1" id="图层_1" xmlns="http://www.w3.org/2000/svg" xmlns:xlink="http://www.w3.org/1999/xlink" x="0px" y="0px"
	 viewBox="0 0 200 200" style="enable-background:new 0 0 200 200;" xml:space="preserve">
<style type="text/css">
	.st0{fill:#0070E0;}
</style>
<g>
	<path class="st0" d="M149,151.8H52.3c-6.3,0-11.5-5.1-11.5-11.5v-17.1h9v17.1c0,1.3,1.1,2.5,2.5,2.5H149c1.3,0,2.5-1.1,2.5-2.5
		V87.2c0-6-3.3-12.5-12.5-12.5h-35.6l-1.7-9H139c12.6,0,21.5,8.8,21.5,21.5v53.1C160.5,146.6,155.3,151.8,149,151.8z"/>
</g>
<g>
	<path class="st0" d="M49.9,123.3h-9V60.1c0-6.3,5.1-11.5,11.5-11.5h27c2.1,0,4.2,0.7,5.9,1.9l22.3,16l-4.1,8.2L80,57.9
		c-0.2-0.1-0.4-0.2-0.6-0.2h-27c-1.3,0-2.5,1.1-2.5,2.5V123.3z"/>
</g>
</svg>
