<?xml version="1.0" encoding="utf-8"?>
<!-- Generator: Adobe Illustrator 22.0.0, SVG Export Plug-In . SVG Version: 6.00 Build 0)  -->
<svg version="1.1" id="图层_1" xmlns="http://www.w3.org/2000/svg" xmlns:xlink="http://www.w3.org/1999/xlink" x="0px" y="0px"
	 viewBox="0 0 32 32" style="enable-background:new 0 0 32 32;" xml:space="preserve">
<style type="text/css">
	.st0{fill:#FF5562;}
	.st1{fill:#FFBBC0;}
	.st2{fill:#85B916;}
	.st3{fill:#DBFCEB;}
	.st4{fill:#559CED;}
	.st5{fill:#A4CEFD;}
	.st6{fill:#FFC900;}
	.st7{fill:#FFDF66;}
	.st8{fill:#8389AD;}
	.st9{fill:#DCE1FE;}
	.st10{fill:#FFFFFF;}
</style>
<path class="st6" d="M4.2,0C3.8,0,3.4,0.2,3.1,0.5S2.6,1.2,2.6,1.6v28.8c0,0.4,0.2,0.8,0.5,1.1C3.4,31.8,3.8,32,4.2,32h23.6
	c0.4,0,0.8-0.2,1.1-0.5c0.3-0.3,0.5-0.7,0.5-1.1V9.1L20.3,0H4.2z"/>
<path class="st7" d="M29.4,9.1h-7.5c-0.4,0-0.8-0.2-1.1-0.5c-0.3-0.3-0.5-0.7-0.5-1.1V0L29.4,9.1z"/>
<g>
	<path class="st10" d="M22.3,25.8h-2l-1.4-3.9H13l-1.4,3.9h-2L15,11.7H17L22.3,25.8z M18.3,20.4L16,13.8l-2.4,6.5H18.3z"/>
</g>
</svg>
