<?xml version="1.0" encoding="utf-8"?>
<!-- Generator: Adobe Illustrator 22.0.0, SVG Export Plug-In . SVG Version: 6.00 Build 0)  -->
<svg version="1.1" id="图层_1" xmlns="http://www.w3.org/2000/svg" xmlns:xlink="http://www.w3.org/1999/xlink" x="0px" y="0px"
	 viewBox="0 0 32 32" style="enable-background:new 0 0 32 32;" xml:space="preserve">
<style type="text/css">
	.st0{fill:#FF5562;}
	.st1{fill:#FFBBC0;}
	.st2{fill:#85B916;}
	.st3{fill:#DBFCEB;}
	.st4{fill:#559CED;}
	.st5{fill:#A4CEFD;}
	.st6{fill:#FFC900;}
	.st7{fill:#FFDF66;}
	.st8{fill:#8389AD;}
	.st9{fill:#DCE1FE;}
	.st10{fill:#FFFFFF;}
</style>
<path class="st0" d="M4.2,0C3.8,0,3.4,0.2,3.1,0.5S2.6,1.2,2.6,1.6v28.8c0,0.4,0.2,0.8,0.5,1.1C3.4,31.8,3.8,32,4.2,32h23.6
	c0.4,0,0.8-0.2,1.1-0.5c0.3-0.3,0.5-0.7,0.5-1.1V9.1L20.3,0H4.2z"/>
<path class="st1" d="M29.4,9.1h-7.5c-0.4,0-0.8-0.2-1.1-0.5c-0.3-0.3-0.5-0.7-0.5-1.1V0L29.4,9.1z"/>
<path class="st10" d="M21.2,25.8c-1.7,0-3.2-2.9-4-4.7c-1.3-0.6-2.8-1.1-4.2-1.4c-1.3,0.8-3.4,2.1-5,2.1c-1,0-1.7-0.5-2-1.4
	c-0.2-0.7,0-1.2,0.2-1.5c0.4-0.6,1.3-0.9,2.6-0.9c1.1,0,2.4,0.2,3.9,0.6c1-0.7,2-1.5,2.9-2.3c-0.4-1.9-0.8-4.9,0.3-6.3
	c0.5-0.7,1.4-0.9,2.3-0.6c1.1,0.3,1.5,1,1.6,1.5c0.5,1.8-1.6,4.3-3,5.7c0.3,1.3,0.7,2.6,1.2,3.8c2,0.9,4.4,2.2,4.7,3.7
	c0.1,0.5-0.1,1-0.5,1.4C21.9,25.6,21.6,25.8,21.2,25.8L21.2,25.8z M18.7,21.7c1,2.1,2,3,2.5,3c0.1,0,0.2,0,0.3-0.2
	c0.2-0.2,0.2-0.3,0.2-0.4C21.6,23.6,20.7,22.8,18.7,21.7L18.7,21.7z M8.8,19c-1.3,0-1.7,0.3-1.8,0.5c0,0.1-0.1,0.2,0,0.6
	c0.1,0.3,0.3,0.6,1,0.6c0.9,0,2.1-0.5,3.5-1.3C10.5,19.1,9.6,19,8.8,19z M14.1,18.8c0.9,0.2,1.7,0.5,2.6,0.9
	c-0.3-0.8-0.5-1.6-0.7-2.3C15.3,17.9,14.7,18.4,14.1,18.8L14.1,18.8z M17.4,10.2c-0.3,0-0.5,0.1-0.7,0.3c-0.6,0.7-0.6,2.5-0.2,4.7
	c1.6-1.7,2.5-3.3,2.3-4.2c0-0.1-0.1-0.5-0.9-0.7C17.7,10.3,17.6,10.2,17.4,10.2z"/>
</svg>
