<?xml version="1.0" encoding="utf-8"?>
<!-- Generator: Adobe Illustrator 22.0.0, SVG Export Plug-In . SVG Version: 6.00 Build 0)  -->
<svg version="1.1" id="图层_1" xmlns="http://www.w3.org/2000/svg" xmlns:xlink="http://www.w3.org/1999/xlink" x="0px" y="0px"
	 viewBox="0 0 32 32" style="enable-background:new 0 0 32 32;" xml:space="preserve">
<style type="text/css">
	.st0{fill:#FF5562;}
	.st1{fill:#FFBBC0;}
	.st2{fill:#85B916;}
	.st3{fill:#DBFCEB;}
	.st4{fill:#559CED;}
	.st5{fill:#A4CEFD;}
	.st6{fill:#FFC900;}
	.st7{fill:#FFDF66;}
	.st8{fill:#8389AD;}
	.st9{fill:#DCE1FE;}
	.st10{fill:#FFFFFF;}
</style>
<path class="st2" d="M4.2,0C3.8,0,3.4,0.2,3.1,0.5S2.6,1.2,2.6,1.6v28.8c0,0.4,0.2,0.8,0.5,1.1C3.4,31.8,3.8,32,4.2,32h23.6
	c0.4,0,0.8-0.2,1.1-0.5c0.3-0.3,0.5-0.7,0.5-1.1V9.1L20.3,0H4.2z"/>
<path class="st3" d="M29.4,9.1h-7.5c-0.4,0-0.8-0.2-1.1-0.5c-0.3-0.3-0.5-0.7-0.5-1.1V0L29.4,9.1z"/>
<path class="st10" d="M26.3,16.7c-0.3-0.3-0.9-0.3-1.2,0l-3.7,3.7l-4.3,4.3c-0.7,0.7-1.8,0.7-2.4,0l-6.1-6.1c-0.7-0.7-0.7-1.8,0-2.4
	l6.1-6.1c0.7-0.7,1.8-0.7,2.4,0l2.8,2.8l-5.8,5.8c-0.2,0.2-0.2,0.4,0,0.6l0.6,0.6c0.2,0.2,0.4,0.2,0.6,0l6.7-6.7
	c0.2-0.2,0.2-0.4,0-0.6l-0.6-0.6l0,0l-3.1-3.1c-1.4-1.3-3.5-1.3-4.9,0l-6.1,6.1c-1.3,1.3-1.3,3.5,0,4.9l6.1,6.1
	c1.4,1.3,3.5,1.3,4.9,0l6.1-6.1l1.8-1.8C26.6,17.6,26.6,17.1,26.3,16.7L26.3,16.7L26.3,16.7z"/>
</svg>
