<?xml version="1.0" encoding="utf-8"?>
<!-- Generator: Adobe Illustrator 22.0.0, SVG Export Plug-In . SVG Version: 6.00 Build 0)  -->
<svg version="1.1" id="图层_1" xmlns="http://www.w3.org/2000/svg" xmlns:xlink="http://www.w3.org/1999/xlink" x="0px" y="0px"
	 viewBox="0 0 200 200" style="enable-background:new 0 0 200 200;" xml:space="preserve">
<style type="text/css">
	.st0{fill:#0070E0;}
</style>
<g>
	<path class="st0" d="M159,113.9c-2.5,0-4.5,2-4.5,4.5v21c0,1.6-2.9,4-7.4,4H52.9c-4.5,0-7.4-2.4-7.4-4v-21c0-2.5-2-4.5-4.5-4.5
		s-4.5,2-4.5,4.5v21c0,7.3,7.2,13,16.4,13h94.2c9.2,0,16.4-5.7,16.4-13v-21C163.5,115.9,161.5,113.9,159,113.9z"/>
	<path class="st0" d="M88.2,120.6c3.2,3.2,7.5,4.8,11.7,4.8c4.2,0,8.5-1.6,11.7-4.8l20.9-20.9c1.8-1.8,1.8-4.6,0-6.4
		c-1.8-1.8-4.6-1.8-6.4,0l-20.9,20.9c-0.2,0.2-0.5,0.4-0.7,0.6V52.1c0-2.5-2-4.5-4.5-4.5s-4.5,2-4.5,4.5V115
		c-0.3-0.2-0.6-0.5-0.9-0.8L73.9,93.3c-1.7-1.8-4.6-1.8-6.4,0c-1.8,1.7-1.8,4.6,0,6.4L88.2,120.6z"/>
</g>
</svg>
