<?xml version="1.0" encoding="utf-8"?>
<!-- Generator: Adobe Illustrator 22.0.0, SVG Export Plug-In . SVG Version: 6.00 Build 0)  -->
<svg version="1.1" id="图层_1" xmlns="http://www.w3.org/2000/svg" xmlns:xlink="http://www.w3.org/1999/xlink" x="0px" y="0px"
	 viewBox="0 0 192.5 172.1" style="enable-background:new 0 0 192.5 172.1;" xml:space="preserve">
<style type="text/css">
	.st0{fill:#E6ECF0;}
	.st1{fill:#CEDAE0;}
	.st2{fill:#FFFFFF;}
	.st3{fill:#EBF2F5;}
</style>
<g>
	<path class="st0" d="M152.3,166.4H39.7c-4.9,0-9.1-3.1-10.8-7.5c-12.5,1.3-20,3-20,4.9c0,4.2,38.7,7.7,86.4,7.7s86.4-3.4,86.4-7.7
		c0-1.8-7-3.5-18.7-4.8C161.4,163.4,157.2,166.4,152.3,166.4L152.3,166.4z"/>
	<path class="st1" d="M181.8,102.6c2.5-1.9,2.5-5.8,2.5-9.2c0-4.6,0-10.2-6.3-10.2c-0.3,0-0.6,0-0.9,0l-7.5-30.8l3.2-10.2
		c0-2.8-2.3-5.1-5.1-5.1h-3.8V26.3L137.5,0H39.7c-6.4,0-11.5,5.2-11.5,11.5v25.6h-3.8c-2.8,0-5.1,2.3-5.1,5.1l3.2,10.2l-7.5,30.9
		c-0.3,0-0.5,0-0.8,0h0c-6.2,0-6.2,5.6-6.2,10.1c0,3.3,0,7.1,2.4,8.9L0,144.6c0,2.8,2.3,5.1,5.1,5.1h23v5.1c0,1.4,0.3,2.8,0.8,4.1
		c1.6,4.4,5.8,7.5,10.8,7.5h112.6c4.9,0,9-3,10.7-7.3c0.5-1.3,0.8-2.7,0.8-4.2v-5.1h23c2.8,0,5.1-2.3,5.1-5.1L181.8,102.6
		L181.8,102.6z M19.4,98.7c-1.4,1.4-3.3,2.2-5.3,2.2c-3,0-3.6-1.5-3.7-6.5v-1c0-5.8,0.5-7.5,3.7-7.5h0.2c4,0.1,7.3,3.4,7.3,7.5
		C21.6,95.4,20.8,97.3,19.4,98.7L19.4,98.7z M152.3,163.8H39.7c-3.6,0-6.7-2.1-8.1-5.2c-0.5-1.2-0.8-2.4-0.8-3.8V11.5c0-4.9,4-9,9-9
		h96.8l0.5,0.5V1.3l25.6,25.6h-1.8l0.5,0.5v127.5c0,1.4-0.3,2.7-0.9,3.9C158.9,161.8,155.9,163.8,152.3,163.8L152.3,163.8z
		 M181.7,94.5v0.1c0,0.3,0,0.6,0,0.9v0c0,0.3,0,0.6,0,0.8v0c-0.2,3.4-1,4.7-3.7,4.7c-4.2,0-7.7-3.4-7.7-7.7c0-4.1,3.3-7.5,7.4-7.7
		c0.1,0,0.2,0,0.3,0c3.5,0,3.8,2.1,3.8,7.7V94.5L181.7,94.5z"/>
	<path class="st2" d="M149.8,26.9c-7.1,0-12.8-5.7-12.8-12.8v-11l-0.5-0.5H39.7c-4.9,0-9,4-9,9v143.4c0,1.4,0.3,2.6,0.8,3.8
		c1.4,3.1,4.5,5.2,8.1,5.2h112.6c3.5,0,6.6-2.1,8.1-5.1c0.6-1.2,0.9-2.5,0.9-3.9V27.4l-0.5-0.5H149.8L149.8,26.9z M14.3,86h-0.2h0
		c-3.2,0-3.7,1.7-3.7,7.5v1c0,0.5,0,1,0,1.5v0.1c0,0.5,0.1,0.9,0.1,1.2v0.1c0,0.4,0.1,0.7,0.2,1c0,0,0,0,0,0.1
		c0.1,0.3,0.2,0.6,0.3,0.8c0.5,1.2,1.4,1.7,3.1,1.7c2,0,3.9-0.8,5.3-2.2c1.4-1.4,2.2-3.3,2.2-5.3C21.6,89.4,18.3,86,14.3,86L14.3,86
		z M178,85.8c-0.1,0-0.2,0-0.3,0c-4.1,0.1-7.4,3.5-7.4,7.7c0,4.2,3.4,7.7,7.7,7.7c1.6,0,2.5-0.5,3.1-1.6v0c0,0,0-0.1,0-0.1
		c0.1-0.1,0.1-0.2,0.1-0.4s0.1-0.2,0.1-0.4c0-0.1,0.1-0.3,0.1-0.4c0-0.2,0.1-0.3,0.1-0.5c0-0.1,0-0.3,0.1-0.4c0-0.3,0.1-0.7,0.1-1.1
		v0c0-0.3,0-0.5,0-0.8v0c0-0.3,0-0.6,0-0.9v-0.1v-1C181.7,87.9,181.4,85.8,178,85.8L178,85.8z"/>
	<path class="st1" d="M162.6,26.9L137,1.3v1.8l23.8,23.8H162.6z"/>
	<path class="st1" d="M137,3.1v11c0,7.1,5.7,12.8,12.8,12.8h11L137,3.1z M72.2,51.2c-3.3,0-6.1,2.7-6.1,6c0,3.3,2.7,6,6,6
		c3.3,0,6-2.7,6.1-6S75.5,51.2,72.2,51.2z M119.8,51.2c-3.3,0-6.1,2.7-6.1,6c0,3.3,2.7,6,6,6c3.3,0,6-2.7,6.1-6
		C125.9,53.9,123.2,51.2,119.8,51.2z M110.9,79.7H82.1c-0.3,0-0.7,0.1-0.9,0.4s-0.4,0.6-0.4,0.9c0.3,8.2,6.9,14.9,15.2,15.2h0.5
		c8.4,0,15.4-6.7,15.7-15.2c0-0.3-0.1-0.7-0.4-0.9C111.6,79.8,111.2,79.7,110.9,79.7L110.9,79.7z M96.1,93.6
		c-3.4-0.1-6.4-1.5-8.7-3.7c1.6-2,4.8-3.4,8.6-3.4c4.1,0,7.7,1.7,9,4C102.6,92.5,99.5,93.7,96.1,93.6L96.1,93.6z"/>
	<path class="st3" d="M49.9,69.3c0,2.2,2.7,4,6.1,4c3.3,0,6.1-1.8,6.1-4l0,0c0-2.2-2.7-4-6.1-4C52.6,65.3,49.9,67.1,49.9,69.3z"/>
	<path class="st3" d="M130,69.3c0,2.2,2.7,4,6.1,4c3.3,0,6.1-1.8,6.1-4c0,0,0,0,0,0c0-2.2-2.7-4-6.1-4C132.7,65.3,130,67.1,130,69.3
		C130,69.3,130,69.3,130,69.3z"/>
	<path class="st3" d="M96,86.5c-3.8,0-7.1,1.4-8.6,3.4c2.3,2.2,5.3,3.6,8.7,3.7c3.4,0.1,6.6-1.1,9-3.2
		C103.7,88.1,100.1,86.5,96,86.5L96,86.5z"/>
</g>
</svg>
