<?xml version="1.0" encoding="utf-8"?>
<!-- Generator: Adobe Illustrator 22.0.0, SVG Export Plug-In . SVG Version: 6.00 Build 0)  -->
<svg version="1.1" id="图层_1" xmlns="http://www.w3.org/2000/svg" xmlns:xlink="http://www.w3.org/1999/xlink" x="0px" y="0px"
	 viewBox="0 0 16 16" style="enable-background:new 0 0 16 16;" xml:space="preserve">
<style type="text/css">
	.st0{fill:#222222;}
	.st1{fill:#0070E0;}
	.st2{fill:none;stroke:#0070E0;stroke-miterlimit:10;}
	.st3{fill:#D7D7D7;}
	.st4{fill:#F0AD4E;}
	.st5{fill:none;stroke:#FFFFFF;stroke-linecap:round;stroke-linejoin:round;stroke-miterlimit:10;}
	.st6{fill:#5CB85C;}
	.st7{fill:#6F6F6F;}
	.st8{fill:#FFFFFF;}
	.st9{fill:none;stroke:#D7D7D7;stroke-miterlimit:10;}
	.st10{fill:#ACACAC;}
	.st11{fill:#CEDAE0;}
	.st12{fill:#637282;}
	.st13{fill:#FC6B6B;}
	.st14{fill:none;stroke:#FC6B6B;stroke-width:1.5;stroke-linecap:round;stroke-linejoin:round;stroke-miterlimit:10;}
	.st15{fill:none;stroke:#222222;stroke-miterlimit:10;}
</style>
<g>
	<path class="st10" d="M14.7,8.5H1.3C1,8.5,0.8,8.3,0.8,8v0c0-0.3,0.2-0.5,0.5-0.5h13.5c0.3,0,0.5,0.2,0.5,0.5v0
		C15.2,8.3,15,8.5,14.7,8.5z"/>
	<path class="st10" d="M8.5,1.3v13.5c0,0.3-0.2,0.5-0.5,0.5h0c-0.3,0-0.5-0.2-0.5-0.5V1.3C7.5,1,7.7,0.8,8,0.8h0
		C8.3,0.8,8.5,1,8.5,1.3z"/>
</g>
</svg>
