<?xml version="1.0" encoding="utf-8"?>
<!-- Generator: Adobe Illustrator 22.0.0, SVG Export Plug-In . SVG Version: 6.00 Build 0)  -->
<svg version="1.1" id="图层_1" xmlns="http://www.w3.org/2000/svg" xmlns:xlink="http://www.w3.org/1999/xlink" x="0px" y="0px"
	 viewBox="0 0 16 16" style="enable-background:new 0 0 16 16;" xml:space="preserve">
<style type="text/css">
	.st0{fill:#222222;}
	.st1{fill:#0070E0;}
	.st2{fill:none;stroke:#0070E0;stroke-miterlimit:10;}
	.st3{fill:#D7D7D7;}
	.st4{fill:#F0AD4E;}
	.st5{fill:none;stroke:#FFFFFF;stroke-linecap:round;stroke-linejoin:round;stroke-miterlimit:10;}
	.st6{fill:#5CB85C;}
	.st7{fill:#6F6F6F;}
	.st8{fill:#FFFFFF;}
	.st9{fill:none;stroke:#D7D7D7;stroke-miterlimit:10;}
	.st10{fill:#ACACAC;}
	.st11{fill:#CEDAE0;}
	.st12{fill:#637282;}
	.st13{fill:#FC6B6B;}
	.st14{fill:none;stroke:#FC6B6B;stroke-width:1.5;stroke-linecap:round;stroke-linejoin:round;stroke-miterlimit:10;}
	.st15{fill:none;stroke:#222222;stroke-miterlimit:10;}
</style>
<g>
	<g>
		<path class="st6" d="M15.5,7.6c0-1.9-0.8-3.7-2.2-5.1c-1.4-1.3-3.2-2.1-5.1-2.1l-0.5,0c-1.9,0-3.7,0.8-5.1,2.2S0.5,5.9,0.5,7.8
			l0,0.5c0,1.9,0.8,3.7,2.2,5.1c1.4,1.3,3.2,2.1,5.1,2.1c0,0,0.1,0,0.1,0l0.5,0c1.9,0,3.7-0.8,5.1-2.2s2.1-3.2,2.1-5.1L15.5,7.6z
			 M12.7,12.6c-1.2,1.2-2.7,1.9-4.4,1.9l-0.5,0c-1.7,0-3.2-0.6-4.4-1.8C2.2,11.6,1.5,10,1.5,8.3l0-0.5c0-1.7,0.6-3.2,1.8-4.4
			C4.4,2.2,6,1.5,7.7,1.5l0.5,0c0,0,0,0,0.1,0c1.6,0,3.2,0.6,4.4,1.8c1.2,1.2,1.9,2.7,1.9,4.4l0,0.5C14.5,9.9,13.9,11.4,12.7,12.6z"
			/>
		<path class="st6" d="M11.3,5.8L7.2,9.9L5.1,7.9c-0.2-0.2-0.5-0.2-0.7,0s-0.2,0.5,0,0.7L6.8,11c0.2,0.2,0.5,0.2,0.7,0L12,6.5
			c0.2-0.2,0.2-0.5,0-0.7S11.5,5.6,11.3,5.8z"/>
	</g>
</g>
</svg>
