<?xml version="1.0" encoding="utf-8"?>
<!-- Generator: Adobe Illustrator 22.0.0, SVG Export Plug-In . SVG Version: 6.00 Build 0)  -->
<svg version="1.1" id="图层_1" xmlns="http://www.w3.org/2000/svg" xmlns:xlink="http://www.w3.org/1999/xlink" x="0px" y="0px"
	 viewBox="0 0 16 16" style="enable-background:new 0 0 16 16;" xml:space="preserve">
<style type="text/css">
	.st0{fill:#222222;}
	.st1{fill:#0070E0;}
	.st2{fill:none;stroke:#0070E0;stroke-miterlimit:10;}
	.st3{fill:#D7D7D7;}
	.st4{fill:#F0AD4E;}
	.st5{fill:none;stroke:#FFFFFF;stroke-linecap:round;stroke-linejoin:round;stroke-miterlimit:10;}
	.st6{fill:#5CB85C;}
	.st7{fill:#6F6F6F;}
	.st8{fill:#FFFFFF;}
	.st9{fill:none;stroke:#D7D7D7;stroke-miterlimit:10;}
	.st10{fill:#ACACAC;}
	.st11{fill:#CEDAE0;}
	.st12{fill:#637282;}
	.st13{fill:#FC6B6B;}
	.st14{fill:none;stroke:#FC6B6B;stroke-width:1.5;stroke-linecap:round;stroke-linejoin:round;stroke-miterlimit:10;}
	.st15{fill:none;stroke:#222222;stroke-miterlimit:10;}
</style>
<g>
	<path class="st14" d="M6.2,11H4.3c-0.8,0-1.5-0.7-1.5-1.5v-3C2.8,5.7,3.4,5,4.3,5h1.9"/>
	<path class="st14" d="M9.8,5h0.4c1.6,0,3,1.3,3,3v0c0,1.6-1.3,3-3,3H9.8"/>
	<g>
		<path class="st13" d="M9,7.8H7C6.9,7.8,6.9,7.9,6.9,8S6.9,8.2,7,8.2H9c0.1,0,0.2-0.1,0.2-0.2S9.1,7.8,9,7.8L9,7.8z"/>
	</g>
</g>
</svg>
