<?xml version="1.0" standalone="no"?><!DOCTYPE svg PUBLIC "-//W3C//DTD SVG 1.1//EN" "http://www.w3.org/Graphics/SVG/1.1/DTD/svg11.dtd"><svg t="1569764095646" class="icon" viewBox="0 0 1024 1024" version="1.1" xmlns="http://www.w3.org/2000/svg" p-id="13869" xmlns:xlink="http://www.w3.org/1999/xlink" width="200" height="200"><defs><style type="text/css"></style></defs><path d="M512 512m-512 0a512 512 0 1 0 1024 0 512 512 0 1 0-1024 0Z" fill="#E8F1FD" p-id="13870"></path><path d="M511.5 707.3c-10.3 0-20-3.9-27.4-10.9L277 519.7c-0.4-0.4-0.8-0.7-1.2-1.1-11.4-11.5-14.7-28.5-8.5-43.3 6.1-14.8 20.5-24.5 36.7-24.5h99v-178c0-21.9 17.8-39.7 39.7-39.7h137.6c21.9 0 39.7 17.8 39.7 39.7v178h99.1c16.2 0 30.6 9.6 36.7 24.6 6.1 14.9 2.8 31.8-8.6 43.2-0.4 0.4-0.8 0.8-1.2 1.1L538.9 696.4c-7.4 7.1-17.1 10.9-27.4 10.9zM304.7 490.8l205.8 175.6c0.3 0.3 0.7 0.6 1 0.9 0.3-0.3 0.7-0.6 1-0.9l205.8-175.6H600c-11 0-20-9-20-20V273H443v197.8c0 11-9 20-20 20H304.7zM758.9 798.5H264.1c-9.8 0-17.7-8.7-17.7-19.4s7.9-19.4 17.7-19.4h494.8c9.8 0 17.7 8.7 17.7 19.4s-8 19.4-17.7 19.4z" fill="#6CA4E6" p-id="13871"></path></svg>