<?xml version="1.0" encoding="utf-8"?>
<!-- Generator: Adobe Illustrator 22.0.0, SVG Export Plug-In . SVG Version: 6.00 Build 0)  -->
<svg version="1.1" id="图层_1" xmlns="http://www.w3.org/2000/svg" xmlns:xlink="http://www.w3.org/1999/xlink" x="0px" y="0px"
	 viewBox="0 0 16 16" style="enable-background:new 0 0 16 16;" xml:space="preserve">
<style type="text/css">
	.st0{fill:#222222;}
	.st1{fill:#0070E0;}
	.st2{fill:none;stroke:#0070E0;stroke-miterlimit:10;}
	.st3{fill:#D7D7D7;}
	.st4{fill:#F0AD4E;}
	.st5{fill:none;stroke:#FFFFFF;stroke-linecap:round;stroke-linejoin:round;stroke-miterlimit:10;}
	.st6{fill:#5CB85C;}
	.st7{fill:#6F6F6F;}
	.st8{fill:#FFFFFF;}
	.st9{fill:none;stroke:#D7D7D7;stroke-miterlimit:10;}
	.st10{fill:#ACACAC;}
	.st11{fill:#CEDAE0;}
	.st12{fill:#637282;}
	.st13{fill:#FC6B6B;}
	.st14{fill:none;stroke:#FC6B6B;stroke-width:1.5;stroke-linecap:round;stroke-linejoin:round;stroke-miterlimit:10;}
	.st15{fill:none;stroke:#222222;stroke-miterlimit:10;}
</style>
<g>
	<path class="st10" d="M13.6,5l-6.8,6.8c-0.2,0.2-0.5,0.2-0.7,0h0C6,11.5,6,11.2,6.2,11l6.8-6.8c0.2-0.2,0.5-0.2,0.7,0l0,0
		C13.8,4.5,13.8,4.8,13.6,5z"/>
	<path class="st10" d="M2.4,7.9l3.8,3.8c0.2,0.2,0.5,0.2,0.7,0h0c0.2-0.2,0.2-0.5,0-0.7L3.1,7.2C2.9,7,2.5,7,2.4,7.2l0,0
		C2.2,7.4,2.2,7.7,2.4,7.9z"/>
</g>
</svg>
