<?xml version="1.0" encoding="utf-8"?>
<!-- Generator: Adobe Illustrator 22.0.0, SVG Export Plug-In . SVG Version: 6.00 Build 0)  -->
<svg version="1.1" id="图层_1" xmlns="http://www.w3.org/2000/svg" xmlns:xlink="http://www.w3.org/1999/xlink" x="0px" y="0px"
	 viewBox="0 0 16 16" style="enable-background:new 0 0 16 16;" xml:space="preserve">
<style type="text/css">
	.st0{fill:#222222;}
	.st1{fill:#0070E0;}
	.st2{fill:none;stroke:#0070E0;stroke-miterlimit:10;}
	.st3{fill:#D7D7D7;}
	.st4{fill:#F0AD4E;}
	.st5{fill:none;stroke:#FFFFFF;stroke-linecap:round;stroke-linejoin:round;stroke-miterlimit:10;}
	.st6{fill:#5CB85C;}
	.st7{fill:#6F6F6F;}
	.st8{fill:#FFFFFF;}
	.st9{fill:none;stroke:#D7D7D7;stroke-miterlimit:10;}
	.st10{fill:#ACACAC;}
	.st11{fill:#CEDAE0;}
	.st12{fill:#637282;}
	.st13{fill:#FC6B6B;}
	.st14{fill:none;stroke:#FC6B6B;stroke-width:1.5;stroke-linecap:round;stroke-linejoin:round;stroke-miterlimit:10;}
	.st15{fill:none;stroke:#222222;stroke-miterlimit:10;}
</style>
<g>
	<path class="st10" d="M13.1,3.6l-9.5,9.5c-0.2,0.2-0.5,0.2-0.7,0l0,0c-0.2-0.2-0.2-0.5,0-0.7l9.5-9.5c0.2-0.2,0.5-0.2,0.7,0l0,0
		C13.3,3.1,13.3,3.4,13.1,3.6z"/>
	<path class="st10" d="M3.6,2.9l9.5,9.5c0.2,0.2,0.2,0.5,0,0.7l0,0c-0.2,0.2-0.5,0.2-0.7,0L2.9,3.6c-0.2-0.2-0.2-0.5,0-0.7l0,0
		C3.1,2.7,3.4,2.7,3.6,2.9z"/>
</g>
</svg>
