<?xml version="1.0" encoding="utf-8"?>
<!-- Generator: Adobe Illustrator 22.0.0, SVG Export Plug-In . SVG Version: 6.00 Build 0)  -->
<svg version="1.1" id="图层_1" xmlns="http://www.w3.org/2000/svg" xmlns:xlink="http://www.w3.org/1999/xlink" x="0px" y="0px"
	 viewBox="0 0 16 16" style="enable-background:new 0 0 16 16;" xml:space="preserve">
<style type="text/css">
	.st0{fill:#222222;}
	.st1{fill:#0070E0;}
	.st2{fill:none;stroke:#0070E0;stroke-miterlimit:10;}
	.st3{fill:#D7D7D7;}
	.st4{fill:#F0AD4E;}
	.st5{fill:none;stroke:#FFFFFF;stroke-linecap:round;stroke-linejoin:round;stroke-miterlimit:10;}
	.st6{fill:#5CB85C;}
	.st7{fill:#6F6F6F;}
	.st8{fill:#FFFFFF;}
	.st9{fill:none;stroke:#D7D7D7;stroke-miterlimit:10;}
	.st10{fill:#ACACAC;}
	.st11{fill:#CEDAE0;}
	.st12{fill:#637282;}
	.st13{fill:#FC6B6B;}
	.st14{fill:none;stroke:#FC6B6B;stroke-width:1.5;stroke-linecap:round;stroke-linejoin:round;stroke-miterlimit:10;}
	.st15{fill:none;stroke:#222222;stroke-miterlimit:10;}
</style>
<g>
	<g>
		<polygon class="st13" points="9.1,7.9 6.9,7.9 6.9,8.2 9.1,8.2 9.1,7.9 		"/>
	</g>
	<g>
		<path class="st13" d="M10.3,4.3H8.8v2h1.4c0.9,0,1.7,0.8,1.7,1.7s-0.8,1.7-1.7,1.7H8.8v2h1.4c2,0,3.7-1.7,3.7-3.7
			S12.3,4.3,10.3,4.3z"/>
		<path class="st13" d="M7.2,9.7H5.8C4.8,9.7,4.1,8.9,4.1,8s0.8-1.7,1.7-1.7h1.4v-2H5.8C3.7,4.3,2.1,6,2.1,8s1.7,3.7,3.7,3.7h1.4
			V9.7z"/>
	</g>
</g>
</svg>
