<?xml version="1.0" standalone="no"?><!DOCTYPE svg PUBLIC "-//W3C//DTD SVG 1.1//EN" "http://www.w3.org/Graphics/SVG/1.1/DTD/svg11.dtd"><svg t="1562945544167" class="icon" viewBox="0 0 1024 1024" version="1.1" xmlns="http://www.w3.org/2000/svg" p-id="5053" xmlns:xlink="http://www.w3.org/1999/xlink" width="200" height="200"><defs><style type="text/css"></style></defs><path d="M548.571429 731.428571H585.142857a36.571429 36.571429 0 1 1 0 73.142858H438.857143a36.571429 36.571429 0 1 1 0-73.142858h36.571428V438.857143H438.857143a36.571429 36.571429 0 0 1 0-73.142857h73.142857a36.571429 36.571429 0 0 1 36.571429 36.571428V731.428571zM512 1024A512 512 0 1 1 512 0a512 512 0 0 1 0 1024z m0-73.142857A438.857143 438.857143 0 1 0 512 73.142857a438.857143 438.857143 0 0 0 0 877.714286z m0-658.285714a36.571429 36.571429 0 1 1 0-73.142858 36.571429 36.571429 0 0 1 0 73.142858z" p-id="5054" fill="#acacac"></path></svg>