<?xml version="1.0" encoding="utf-8"?>
<!-- Generator: Adobe Illustrator 22.0.0, SVG Export Plug-In . SVG Version: 6.00 Build 0)  -->
<svg version="1.1" id="图层_1" xmlns="http://www.w3.org/2000/svg" xmlns:xlink="http://www.w3.org/1999/xlink" x="0px" y="0px"
	 viewBox="0 0 200 200" style="enable-background:new 0 0 200 200;" xml:space="preserve">
<style type="text/css">
	.st0{fill:#0070E0;}
</style>
<path class="st0" d="M106.1,148l0.6-8.9H45.5c-11,0-20-9-20-20c0-7.1,3.7-13.5,10-17.2c6.1-3.5,6.5-4.2,4-10.5
	c-0.4-1.1-0.6-2.3-0.6-3.4c0-6.1,5-11.1,11.1-11.1c0,0,2.9-0.2,6,1c5.1,2,5.7,0.1,8.1-5.2c5.1-11,16.1-18.1,28.1-18.1
	c16,0,29.2,12.1,30.7,28.1c0.5,6.3,0.5,6.3,7.2,7.9c5,1,9.6,3.5,13.2,7.2l9.5-2.3c-5-7.1-12.5-12-21-13.6
	c-1.9-20.3-18.8-36.2-39.6-36.2c-16.1,0-29.8,9.5-36.2,23.2c-1.9-0.7-4-1-6-1c-11,0-20,8.9-20,20c0,2.2,0.4,4.3,1.1,6.2
	c-8.6,5-14.4,14.2-14.4,24.8c0,15.9,12.9,28.9,28.9,28.9v0L106.1,148L106.1,148z"/>
<path class="st0" d="M86.2,115.7l19.6,18.9l75.2-37.9l-67.6,42.3l-0.6,21.8l10.1-10.1l10.7,10.7l58.1-70.4L86.2,115.7z"/>
</svg>
