<?xml version="1.0" encoding="utf-8"?>
<!-- Generator: Adobe Illustrator 22.0.0, SVG Export Plug-In . SVG Version: 6.00 Build 0)  -->
<svg version="1.1" id="图层_1" xmlns="http://www.w3.org/2000/svg" xmlns:xlink="http://www.w3.org/1999/xlink" x="0px" y="0px"
	 viewBox="0 0 16 16" style="enable-background:new 0 0 16 16;" xml:space="preserve">
<style type="text/css">
	.st0{fill:#C1C7CD;}
	.st1{fill:#D7D7D7;}
	.st2{fill:#637282;}
	.st3{fill:#0070E0;}
	.st4{fill:#5CB85C;}
	.st5{fill:#F0AD4E;}
</style>
<g>
	<g>
		<path class="st2" d="M6.2,11.8H4.3C3,11.8,2,10.7,2,9.5v-3c0-1.2,1-2.3,2.3-2.3h1.9c0.4,0,0.8,0.3,0.8,0.8S6.6,5.8,6.2,5.8H4.3
			c-0.4,0-0.8,0.3-0.8,0.8v3c0,0.4,0.3,0.8,0.8,0.8h1.9c0.4,0,0.8,0.3,0.8,0.8S6.6,11.8,6.2,11.8z"/>
	</g>
	<g>
		<path class="st2" d="M10.3,11.8H9.8c-0.4,0-0.8-0.3-0.8-0.8s0.3-0.8,0.8-0.8h0.4c1.2,0,2.3-1,2.3-2.3s-1-2.3-2.3-2.3H9.8
			C9.4,5.8,9.1,5.4,9.1,5s0.3-0.8,0.8-0.8h0.4C12.3,4.3,14,5.9,14,8S12.3,11.8,10.3,11.8z"/>
	</g>
	<g>
		<path class="st2" d="M9,7.8H7C6.9,7.8,6.9,7.9,6.9,8S6.9,8.2,7,8.2H9c0.1,0,0.2-0.1,0.2-0.2S9.1,7.8,9,7.8L9,7.8z"/>
	</g>
</g>
</svg>
