<?xml version="1.0" standalone="no"?><!DOCTYPE svg PUBLIC "-//W3C//DTD SVG 1.1//EN" "http://www.w3.org/Graphics/SVG/1.1/DTD/svg11.dtd"><svg t="1545919300655" class="icon" style="" viewBox="0 0 1024 1024" version="1.1" xmlns="http://www.w3.org/2000/svg" p-id="10337" xmlns:xlink="http://www.w3.org/1999/xlink" width="200" height="200"><defs><style type="text/css"></style></defs><path d="M731.8 544.4l-203.4 37.9c-1.8 0.3-3.7 0.3-5.5 0l-204.2-37.9c-7.5-1.4-12.9-8.1-12.9-16V215.1c0-10.1 8.8-17.8 18.4-16L522.8 236c1.8 0.3 3.7 0.3 5.5 0l197.9-36.9c9.6-1.8 18.5 5.9 18.5 16v313.3c0 7.9-5.5 14.6-12.9 16z" fill="#FFD500" p-id="10338"></path><path d="M711.9 544.4l-20.9 3.8 0.7-346.5 14.6-2.7c9.6-1.8 18.5 5.9 18.5 16v313.3c0 8-5.4 14.7-12.9 16.1z" fill="#FFB600" p-id="10339"></path><path d="M788.6 711.9L533 759.6c-1.8 0.3-3.7 0.3-5.5 0L271 712c-7.5-1.4-12.9-8.1-12.9-16V300.1c0-10.1 8.8-17.8 18.4-16l251 46.6c1.8 0.3 3.7 0.3 5.5 0l250.1-46.6c9.6-1.8 18.5 5.9 18.5 16V696c-0.1 7.8-5.5 14.6-13 15.9z" fill="#00B1FF" p-id="10340"></path><path d="M197.1 829.9h-30c-3.9 0-7-3.1-7-7v-2c0-3.9 3.1-7 7-7h30c3.9 0 7 3.1 7 7v2c0 3.9-3.1 7-7 7z" fill="#5C3290" p-id="10341"></path><path d="M587.6 830.9h-384c-4.4 0-8-3.6-8-8s3.6-8 8-8h384c4.4 0 8 3.6 8 8s-3.6 8-8 8zM887.4 830.9h-98c-4.4 0-8-3.6-8-8s3.6-8 8-8h98c4.4 0 8 3.6 8 8s-3.6 8-8 8zM712.7 830.9h-44c-4.4 0-8-3.6-8-8s3.6-8 8-8h44c4.4 0 8 3.6 8 8s-3.6 8-8 8zM141.4 830.9h-4c-4.4 0-8-3.6-8-8s3.6-8 8-8h4c4.4 0 8 3.6 8 8s-3.6 8-8 8zM752.2 830.9h-4c-4.4 0-8-3.6-8-8s3.6-8 8-8h4c4.4 0 8 3.6 8 8s-3.5 8-8 8z" fill="#5C3290" p-id="10342"></path><path d="M577.6 879.5H393.2c-4.3 0-7.8-3.5-7.8-7.8v-0.3c0-4.3 3.5-7.8 7.8-7.8h184.3c4.3 0 7.8 3.5 7.8 7.8v0.3c0.1 4.3-3.4 7.8-7.7 7.8zM366.9 879.5h-28.3c-4.3 0-7.8-3.5-7.8-7.8v-0.3c0-4.3 3.5-7.8 7.8-7.8h28.3c4.3 0 7.8 3.5 7.8 7.8v0.3c0 4.3-3.5 7.8-7.8 7.8zM716 879.5h-98.3c-4.3 0-7.8-3.5-7.8-7.8v-0.3c0-4.3 3.5-7.8 7.8-7.8H716c4.3 0 7.8 3.5 7.8 7.8v0.3c0 4.3-3.5 7.8-7.8 7.8zM311.2 879.5h-4.3c-4.3 0-7.8-3.5-7.8-7.8v-0.3c0-4.3 3.5-7.8 7.8-7.8h4.3c4.3 0 7.8 3.5 7.8 7.8v0.3c0 4.3-3.5 7.8-7.8 7.8z" fill="#AD98C7" p-id="10343"></path><path d="M479 928.1h-28c-4.4 0-8-3.6-8-8s3.6-8 8-8h28c4.4 0 8 3.6 8 8s-3.6 8-8 8zM603.5 928.1h-98c-4.4 0-8-3.6-8-8s3.6-8 8-8h98c4.4 0 8 3.6 8 8s-3.6 8-8 8zM423.2 928.1h-4c-4.4 0-8-3.6-8-8s3.6-8 8-8h4c4.4 0 8 3.6 8 8s-3.5 8-8 8z" fill="#EEEAF4" p-id="10344"></path><path d="M761.5 711.9l-28.7 5.6V288.2l23.2-4c9.6-1.8 18.5 5.9 18.5 16V696c0 7.8-5.5 14.6-13 15.9z" fill="#0091F1" p-id="10345"></path><path d="M719.2 440.7l-117.8 21c-8.8 1.6-16.9-5.2-16.9-14.1v-37.1c0-6.9 5-12.9 11.8-14.1l117.8-21c8.8-1.6 16.9 5.2 16.9 14.1v37.1c0 6.9-4.9 12.8-11.8 14.1z" fill="#7BD721" p-id="10346"></path><path d="M719.2 440.7l-13.2 2.6V377l8.2-1.5c8.8-1.6 16.9 5.2 16.9 14.1v37.1c-0.1 6.8-5 12.7-11.9 14z" fill="#6EC11D" p-id="10347"></path><path d="M102 237.5c-3.7 1.2-7 3.2-9.8 5.6 3.7 1.1 6.8 4 8.1 7.9 2.1 6.4-1.4 13.4-7.8 15.5-3.3 1.1-6.7 0.7-9.6-0.8 0.1 2.3 0.6 4.7 1.3 7 4.8 14.6 20.6 22.6 35.2 17.8 14.6-4.8 22.6-20.6 17.8-35.2-4.8-14.6-20.6-22.6-35.2-17.8z" fill="#B6EFFF" p-id="10348"></path><path d="M117.5 256.7c1 2.8 1.3 5.9 0.9 9.2-1.2 9-8.7 16.2-17.8 17.1-12.6 1.2-23.2-9.3-21.9-21.9 0.9-9 7.9-16.4 16.8-17.8 3.2-0.5 6.4-0.2 9.2 0.7 2.1 0.7 4.3 0.3 5.9-1.2l0.2-0.2c3.3-3 2.2-8.5-2.1-9.9-3.9-1.3-8-1.9-12.4-1.6-15.9 1.1-28.7 14-29.7 29.9-1.3 20.3 16.3 36.8 36.9 33.7 13.5-2 24.4-12.7 26.6-26.2 0.9-5.4 0.4-10.7-1.2-15.4-1.4-4.2-6.5-5.6-9.8-2.6-1.6 1.5-2.3 3.9-1.6 6.2z" fill="#5C3290" p-id="10349"></path><path d="M208.3 154.9m-8 0a8 8 0 1 0 16 0 8 8 0 1 0-16 0Z" fill="#5C3390" p-id="10350"></path><path d="M849.5 153.8m-10 0a10 10 0 1 0 20 0 10 10 0 1 0-20 0Z" fill="#FFA819" p-id="10351"></path><path d="M497.9 136.1h-0.1c2.4 1.4 4.1 3.9 4.5 6.9 0.7 5.2-3 10.1-8.2 10.8-4.2 0.6-8.1-1.7-9.9-5.3-0.5 1.9-0.6 4-0.3 6.1 1.2 9 9.5 15.2 18.4 14 9-1.2 15.2-9.5 14-18.4-1.1-9.1-9.4-15.3-18.4-14.1z" fill="#FFE404" p-id="10352"></path><path d="M374.1 111.2c-12.2 0-22 9.8-22 22s9.8 22 22 22 22-9.8 22-22-9.9-22-22-22z m0 30c-4.4 0-8-3.6-8-8s3.6-8 8-8 8 3.6 8 8-3.6 8-8 8z" fill="#5C3290" p-id="10353"></path><path d="M939.5 385c-9.9 0-18 8.1-18 18s8.1 18 18 18 18-8.1 18-18-8.1-18-18-18z m0 24.6c-3.6 0-6.5-2.9-6.5-6.5s2.9-6.5 6.5-6.5 6.5 2.9 6.5 6.5c0 3.5-2.9 6.5-6.5 6.5z" fill="#EEEAF4" p-id="10354"></path><path d="M866.1 287.3h14c2.8 0 5 2.2 5 5s-2.2 5-5 5h-14c-2.8 0-5-2.2-5-5s2.2-5 5-5zM883.7 313.7v-14c0-2.8 2.2-5 5-5s5 2.2 5 5v14c0 2.8-2.2 5-5 5-2.7 0-5-2.2-5-5zM910.1 296.1h-14c-2.8 0-5-2.2-5-5s2.2-5 5-5h14c2.8 0 5 2.2 5 5 0 2.7-2.2 5-5 5zM892.5 269.7v14c0 2.8-2.2 5-5 5s-5-2.2-5-5v-14c0-2.8 2.2-5 5-5s5 2.2 5 5z" fill="#AD98C7" p-id="10355"></path><path d="M99.6 398.1m-4.8 0a4.8 4.8 0 1 0 9.6 0 4.8 4.8 0 1 0-9.6 0Z" fill="#FCDDCC" p-id="10356"></path><path d="M135.8 395.6m-4.8 0a4.8 4.8 0 1 0 9.6 0 4.8 4.8 0 1 0-9.6 0Z" fill="#FCDDCC" p-id="10357"></path><path d="M116 381.8m-4.8 0a4.8 4.8 0 1 0 9.6 0 4.8 4.8 0 1 0-9.6 0Z" fill="#FCDDCC" p-id="10358"></path><path d="M117.7 414.7m-4.8 0a4.8 4.8 0 1 0 9.6 0 4.8 4.8 0 1 0-9.6 0Z" fill="#FCDDCC" p-id="10359"></path><path d="M95.6 371.6l14.8 14.8c1.6 1.6 1.6 4.1 0 5.7-1.6 1.6-4.1 1.6-5.7 0l-14.8-14.8c-1.6-1.6-1.6-4.1 0-5.7 1.6-1.6 4.1-1.6 5.7 0zM90 419.1l14.8-14.8c1.6-1.6 4.1-1.6 5.7 0 1.6 1.6 1.6 4.1 0 5.7l-14.8 14.8c-1.6 1.6-4.1 1.6-5.7 0-1.6-1.6-1.6-4.2 0-5.7zM139 423.9l-14.8-14.8c-1.6-1.6-1.6-4.1 0-5.7 1.6-1.6 4.1-1.6 5.7 0l14.8 14.8c1.6 1.6 1.6 4.1 0 5.7-1.6 1.5-4.1 1.5-5.7 0zM143 375.6l-14.8 14.8c-1.6 1.6-4.1 1.6-5.7 0-1.6-1.6-1.6-4.1 0-5.7l14.8-14.8c1.6-1.6 4.1-1.6 5.7 0 1.6 1.6 1.6 4.1 0 5.7z" fill="#FCDDCC" p-id="10360"></path><path d="M603.4 119.6l-7.1-7.1c-1.6-1.6-1.6-4.1 0-5.7 1.6-1.6 4.1-1.6 5.7 0l7.1 7.1c1.6 1.6 1.6 4.1 0 5.7-1.6 1.6-4.1 1.6-5.7 0zM602.2 131.7h-10c-2.2 0-4-1.8-4-4s1.8-4 4-4h10c2.2 0 4 1.8 4 4s-1.8 4-4 4zM609.9 141.2l-7.1 7.1c-1.6 1.6-4.1 1.6-5.7 0-1.6-1.6-1.6-4.1 0-5.7l7.1-7.1c1.6-1.6 4.1-1.6 5.7 0 1.6 1.6 1.6 4.1 0 5.7zM622 142.4v10c0 2.2-1.8 4-4 4s-4-1.8-4-4v-10c0-2.2 1.8-4 4-4s4 1.8 4 4zM631.5 134.7l7.1 7.1c1.6 1.6 1.6 4.1 0 5.7-1.6 1.6-4.1 1.6-5.7 0l-7.1-7.1c-1.6-1.6-1.6-4.1 0-5.7 1.6-1.5 4.1-1.5 5.7 0zM632.7 122.6h10c2.2 0 4 1.8 4 4s-1.8 4-4 4h-10c-2.2 0-4-1.8-4-4s1.8-4 4-4zM625 113.2l7.1-7.1c1.6-1.6 4.1-1.6 5.7 0 1.6 1.6 1.6 4.1 0 5.7l-7.1 7.1c-1.6 1.6-4.1 1.6-5.7 0-1.5-1.6-1.5-4.2 0-5.7zM612.9 111.9v-10c0-2.2 1.8-4 4-4s4 1.8 4 4v10c0 2.2-1.8 4-4 4s-4-1.8-4-4z" fill="#7BD721" p-id="10361"></path><path d="M856.1 380.3m-8 0a8 8 0 1 0 16 0 8 8 0 1 0-16 0Z" fill="#4CC6F4" p-id="10362"></path></svg>